# xmcd
#
# Track frame offsets:
#	150
#	17038
#	27926
#	48765
#	69594
#	84629
#	106975
#	128826
#	155127
#	171165
#
# Disc length: 2727 seconds
#
# Revision: 1
# Processed by: cddbd v1.5.2PL0 Copyright (c) Steve Scherf et al.
# Submitted via: audiograbber 1.83.01
#
DISCID=7d0aa50a
DTITLE=Kent Burnside - Cotton Field Disco
DYEAR=2006
DGENRE=Blues
TTITLE0=Magic Woman
TTITLE1=All Your Love
TTITLE2=Reason
TTITLE3=Moving On
TTITLE4=Roll and Tumble
TTITLE5=Surrender
TTITLE6=Jumper
TTITLE7=Ghetto
TTITLE8=Poor Black Mattie
TTITLE9=What's Going On
EXTD=
EXTT0=
EXTT1=
EXTT2=
EXTT3=
EXTT4=
EXTT5=
EXTT6=
EXTT7=
EXTT8=
EXTT9=
PLAYORDER=
